<svg width="400" height="381" viewBox="0 0 400 381" fill="none" xmlns="http://www.w3.org/2000/svg">
<g clip-path="url(#clip0_101_2)">
<rect width="400" height="381" rx="190.5" fill="white"/>
<rect width="400" height="381" rx="190.5" fill="url(#paint0_linear_101_2)"/>
<g filter="url(#filter0_d_101_2)">
<mask id="path-3-outside-1_101_2" maskUnits="userSpaceOnUse" x="131" y="126" width="134" height="164" fill="black">
<rect fill="white" x="131" y="126" width="134" height="164"/>
<path d="M138.264 146.655C134.128 146.655 132.061 144.963 132.061 141.58V132.331C132.061 128.947 134.128 127.255 138.264 127.255H257.599C261.735 127.255 263.803 128.947 263.803 132.331V141.58C263.803 144.963 261.735 146.655 257.599 146.655H208.76V282.796C208.76 286.932 206.88 289 203.12 289H192.743C188.983 289 187.104 286.932 187.104 282.796V146.655H138.264Z"/>
</mask>
<path d="M138.264 146.655C134.128 146.655 132.061 144.963 132.061 141.58V132.331C132.061 128.947 134.128 127.255 138.264 127.255H257.599C261.735 127.255 263.803 128.947 263.803 132.331V141.58C263.803 144.963 261.735 146.655 257.599 146.655H208.76V282.796C208.76 286.932 206.88 289 203.12 289H192.743C188.983 289 187.104 286.932 187.104 282.796V146.655H138.264Z" fill="url(#paint1_linear_101_2)"/>
<path d="M208.76 146.655V145.655H207.76V146.655H208.76ZM187.104 146.655H188.104V145.655H187.104V146.655ZM138.264 145.655C136.307 145.655 135.025 145.251 134.245 144.612C133.503 144.005 133.061 143.058 133.061 141.58H131.061C131.061 143.485 131.652 145.076 132.978 146.16C134.266 147.214 136.085 147.655 138.264 147.655V145.655ZM133.061 141.58V132.331H131.061V141.58H133.061ZM133.061 132.331C133.061 130.852 133.503 129.905 134.245 129.298C135.025 128.659 136.307 128.255 138.264 128.255V126.255C136.085 126.255 134.266 126.696 132.978 127.75C131.652 128.835 131.061 130.426 131.061 132.331H133.061ZM138.264 128.255H257.599V126.255H138.264V128.255ZM257.599 128.255C259.556 128.255 260.838 128.659 261.619 129.298C262.361 129.905 262.803 130.852 262.803 132.331H264.803C264.803 130.426 264.211 128.835 262.885 127.75C261.598 126.696 259.778 126.255 257.599 126.255V128.255ZM262.803 132.331V141.58H264.803V132.331H262.803ZM262.803 141.58C262.803 143.058 262.361 144.005 261.619 144.612C260.838 145.251 259.556 145.655 257.599 145.655V147.655C259.778 147.655 261.598 147.214 262.885 146.16C264.211 145.076 264.803 143.485 264.803 141.58H262.803ZM257.599 145.655H208.76V147.655H257.599V145.655ZM207.76 146.655V282.796H209.76V146.655H207.76ZM207.76 282.796C207.76 284.732 207.318 285.998 206.61 286.776C205.919 287.537 204.82 288 203.12 288V290C205.18 290 206.901 289.429 208.09 288.122C209.262 286.832 209.76 284.996 209.76 282.796H207.76ZM203.12 288H192.743V290H203.12V288ZM192.743 288C191.043 288 189.945 287.537 189.253 286.776C188.546 285.998 188.104 284.732 188.104 282.796H186.104C186.104 284.996 186.601 286.832 187.773 288.122C188.962 289.429 190.683 290 192.743 290V288ZM188.104 282.796V146.655H186.104V282.796H188.104ZM187.104 145.655H138.264V147.655H187.104V145.655Z" fill="#18942A" mask="url(#path-3-outside-1_101_2)"/>
</g>
</g>
<defs>
<filter id="filter0_d_101_2" x="128.061" y="127.255" width="139.742" height="169.745" filterUnits="userSpaceOnUse" color-interpolation-filters="sRGB">
<feFlood flood-opacity="0" result="BackgroundImageFix"/>
<feColorMatrix in="SourceAlpha" type="matrix" values="0 0 0 0 0 0 0 0 0 0 0 0 0 0 0 0 0 0 127 0" result="hardAlpha"/>
<feOffset dy="4"/>
<feGaussianBlur stdDeviation="2"/>
<feComposite in2="hardAlpha" operator="out"/>
<feColorMatrix type="matrix" values="0 0 0 0 0 0 0 0 0 0 0 0 0 0 0 0 0 0 0.25 0"/>
<feBlend mode="normal" in2="BackgroundImageFix" result="effect1_dropShadow_101_2"/>
<feBlend mode="normal" in="SourceGraphic" in2="effect1_dropShadow_101_2" result="shape"/>
</filter>
<linearGradient id="paint0_linear_101_2" x1="169.5" y1="355" x2="591.5" y2="358.5" gradientUnits="userSpaceOnUse">
<stop stop-color="#162A47"/>
<stop offset="1" stop-color="#36AD9D"/>
</linearGradient>
<linearGradient id="paint1_linear_101_2" x1="-3.49999" y1="123" x2="397" y2="123" gradientUnits="userSpaceOnUse">
<stop stop-color="#02EBEF"/>
<stop offset="1" stop-color="white"/>
</linearGradient>
<clipPath id="clip0_101_2">
<rect width="400" height="381" rx="190.5" fill="white"/>
</clipPath>
</defs>
</svg>
